<?xml version="1.0" encoding="UTF-8" standalone="no"?>
<svg width="800px" height="800px" viewBox="0 0 192 192" version="1.1" xmlns="http://www.w3.org/2000/svg" xmlns:xlink="http://www.w3.org/1999/xlink">
    <!-- Generator: Sketch 39.1 (31720) - http://www.bohemiancoding.com/sketch -->
    <title>Master</title>
    <desc>Created with Sketch.</desc>
    <defs>
        <rect id="path-1" x="0" y="0" width="152" height="152" rx="12"></rect>
        <circle id="circle-4" cx="76" cy="76" r="64"/>
        <path d="M76,136 C109.137085,136 136,109.137085 136,76 C136,42.862915 109.137085,16 76,16 C42.862915,16 16,42.862915 16,76 C16,109.137085 42.862915,136 76,136 Z" id="path-7"></path>
        <mask id="mask-8" maskContentUnits="userSpaceOnUse" maskUnits="objectBoundingBox" x="0" y="0" width="120" height="120" fill="white">
            <use xlink:href="#path-7"></use>
        </mask>
        <circle id="path-9" cx="76" cy="76" r="28"></circle>
        <mask id="mask-10" maskContentUnits="userSpaceOnUse" maskUnits="objectBoundingBox" x="0" y="0" width="56" height="56" fill="white">
            <use xlink:href="#path-9"></use>
        </mask>
        <circle id="path-11" cx="76" cy="76" r="20"></circle>
        <mask id="mask-12" maskContentUnits="userSpaceOnUse" maskUnits="objectBoundingBox" x="0" y="0" width="40" height="40" fill="white">
            <use xlink:href="#path-11"></use>
        </mask>
    </defs>
    <g id="Page-1" stroke="none" stroke-width="1" fill="none" fill-rule="evenodd">
        <g id="Master">
            <g id="Logo" transform="translate(20.000000, 20.000000)">
                <mask id="mask-2" fill="white">
                    <use xlink:href="#circle-4"></use>
                </mask>
                <use id="Mask" fill="#2879FF" xlink:href="#circle-4"></use>
                <g id="Grid" mask="url(#mask-2)" stroke="#FFFFFF" stroke-width="0.2" stroke-dasharray="0.4">
                    <g transform="translate(-20.000000, -20.000000)">
                        <path d="M0,0 L192,192" id="Shape"></path>
                        <path d="M192,0 L0,192" id="Shape"></path>
                        <path d="M123.75,0 L123.75,192" id="Shape"></path>
                        <path d="M68.25,0 L68.25,192" id="Shape"></path>
                        <path d="M192,123.75 L0,123.75" id="Shape"></path>
                        <path d="M192,68.25 L0,68.25" id="Shape"></path>
                        <circle id="Oval" cx="96" cy="96" r="39"></circle>
                        <path d="M0,96 L192,96" id="Shape"></path>
                        <path d="M96,0 L96,192" id="Shape"></path>
                    </g>
                </g>
                <use id="Circle-Outer" stroke="#FFFFFF" mask="url(#mask-8)" stroke-width="4" xlink:href="#path-7"></use>
                <use id="Circle-Middle" stroke="#FFFFFF" mask="url(#mask-10)" stroke-width="4" xlink:href="#path-9"></use>
                <use id="Circle-Inner" stroke="#FFFFFF" mask="url(#mask-12)" stroke-width="4" xlink:href="#path-11"></use>
                <rect id="Right" fill="#FFFFFF" x="76" y="48" width="53" height="2"></rect>
                <rect id="Bottom" fill="#FFFFFF" transform="translate(86.132686, 112.449673) rotate(-240.000000) translate(-86.132686, -112.449673) " x="59.6326859" y="111.449673" width="53" height="2"></rect>
                <rect id="Left" fill="#FFFFFF" transform="translate(39.367314, 66.550327) rotate(-120.000000) translate(-39.367314, -66.550327) " x="12.8673141" y="65.5503268" width="53" height="2"></rect>
            </g>
        </g>
    </g>
</svg>
