<?xml version="1.0" encoding="UTF-8" standalone="no"?>
<svg viewBox="0 0 152 152" version="1.1" xmlns="http://www.w3.org/2000/svg" xmlns:xlink="http://www.w3.org/1999/xlink">
    <g fill="none">
        <circle cx="76" cy="76" r="64" fill="#2879FF"/>
		<g stroke="#FFFFFF" stroke-width="0.2" stroke-dasharray="0.4">
			<path d="M0,0 L192,192"/>
			<path d="M152,0 L0,152"/>
			<path d="M103.75,0 L103.75,192"/>
			<path d="M48.25,0 L48.25,192"/>
			<path d="M192,103.75 L0,103.75"/>
			<path d="M192,48.25 L0,48.25"/>
			<path d="M0,76 L192,76"/>
			<path d="M76,0 L76,192"/>
			<circle cx="76" cy="76" r="39"/>
		</g>
		<g stroke="#FFFFFF" stroke-width="2">
		  <circle cx="76" cy="76" r="59"/>
		  <circle cx="76" cy="76" r="27"/>
		  <circle cx="76" cy="76" r="19"/>
		</g>
		<rect id="Right" fill="#FFFFFF" x="76" y="48" width="53" height="2"/>
		<rect id="Bottom" fill="#FFFFFF" transform="translate(86.132686, 112.449673) rotate(-240.000000) translate(-86.132686, -112.449673) " x="59.6326859" y="111.449673" width="53" height="2"></rect>
		<rect id="Left" fill="#FFFFFF" transform="translate(39.367314, 66.550327) rotate(-120.000000) translate(-39.367314, -66.550327) " x="12.8673141" y="65.5503268" width="53" height="2"></rect>
    </g>
</svg>
