<svg width="277" height="285" viewBox="0 0 277 285" fill="none" xmlns="http://www.w3.org/2000/svg">
<path fill-rule="evenodd" clip-rule="evenodd" d="M138.368 241.737C193.248 241.737 237.737 197.248 237.737 142.368C237.737 87.4888 193.248 43 138.368 43C83.4888 43 39 87.4888 39 142.368C39 197.248 83.4888 241.737 138.368 241.737Z" stroke="black" stroke-width="3"/>
<path d="M138.368 192.826C166.235 192.826 188.826 170.235 188.826 142.368C188.826 114.501 166.235 91.9108 138.368 91.9108C110.501 91.9108 87.9108 114.501 87.9108 142.368C87.9108 170.235 110.501 192.826 138.368 192.826Z" stroke="black" stroke-width="3"/>
<path d="M138.368 181.938C160.222 181.938 177.938 164.222 177.938 142.368C177.938 120.515 160.222 102.799 138.368 102.799C116.514 102.799 98.7985 120.515 98.7985 142.368C98.7985 164.222 116.514 181.938 138.368 181.938Z" stroke="black" stroke-width="3"/>
<path d="M182.085 167.642L139.335 241.687" stroke="black" stroke-width="3"/>
<path d="M94.5978 167.637L51.8478 93.592" stroke="black" stroke-width="3"/>
<path d="M138.37 91.9108L223.87 91.9108" stroke="black" stroke-width="3"/>
</svg>
