<svg width="16" height="17" viewBox="0 0 16 17" fill="none" xmlns="http://www.w3.org/2000/svg">
<mask id="mask0_3_804" style="mask-type:alpha" maskUnits="userSpaceOnUse" x="0" y="0" width="16" height="16">
<circle cx="8" cy="8" r="8" fill="#C4C4C4"/>
</mask>
<g mask="url(#mask0_3_804)">
<circle cx="8" cy="8" r="8" fill="#1A73E8"/>
<path d="M7.99997 13.9656C11.2947 13.9656 13.9656 11.2947 13.9656 8C13.9656 4.70529 11.2947 2.03439 7.99997 2.03439C4.70526 2.03439 2.03436 4.70529 2.03436 8C2.03436 11.2947 4.70526 13.9656 7.99997 13.9656Z" stroke="white"/>
<path d="M7.99999 10.5112C9.3838 10.5112 10.5056 9.38941 10.5056 8.0056C10.5056 6.6218 9.3838 5.5 7.99999 5.5C6.61618 5.5 5.49438 6.6218 5.49438 8.0056C5.49438 9.38941 6.61618 10.5112 7.99999 10.5112Z" stroke="white"/>
<path d="M10.1827 9.23105L7.465 13.9383" stroke="white"/>
<path d="M5.82733 9.25156L3.10959 4.54429" stroke="white"/>
<path d="M8.02588 5.5L13.4614 5.5" stroke="white"/>
</g>
</svg>
