<svg width="128" height="128" viewBox="0 0 128 128" fill="none" xmlns="http://www.w3.org/2000/svg">
<g clip-path="url(#clip0_3_43)">
<rect width="128" height="128" rx="28" fill="#1A73E8"/>
<path d="M2.95868 2.95952L125.042 125.043" stroke="white" stroke-opacity="0.3" stroke-width="0.5"/>
<path d="M125.047 2.95171L2.95365 125.046" stroke="white" stroke-opacity="0.3" stroke-width="0.5"/>
<path d="M89.2623 0V128" stroke="white" stroke-opacity="0.3" stroke-width="0.5"/>
<path d="M38.736 0V128" stroke="white" stroke-opacity="0.3" stroke-width="0.5"/>
<path d="M128.001 89.2632H0.000617981" stroke="white" stroke-opacity="0.3" stroke-width="0.5"/>
<path d="M127.999 38.7368H-0.00082016" stroke="white" stroke-opacity="0.3" stroke-width="0.5"/>
<path d="M63.9992 99.6982C83.7148 99.6982 99.6974 83.7156 99.6974 64C99.6974 44.2844 83.7148 28.3018 63.9992 28.3018C44.2836 28.3018 28.301 44.2844 28.301 64C28.301 83.7156 44.2836 99.6982 63.9992 99.6982Z" stroke="white" stroke-opacity="0.3" stroke-width="0.5"/>
<path d="M-0.00082016 64H127.999" stroke="white" stroke-opacity="0.3" stroke-width="0.5"/>
<path d="M63.9992 0V128" stroke="white" stroke-opacity="0.3" stroke-width="0.5"/>
<path fill-rule="evenodd" clip-rule="evenodd" d="M64 113C91.062 113 113 91.062 113 64C113 36.938 91.062 15 64 15C36.938 15 15 36.938 15 64C15 91.062 36.938 113 64 113Z" stroke="white" stroke-width="2"/>
<path d="M64 88.8814C77.7416 88.8814 88.8814 77.7416 88.8814 64C88.8814 50.2584 77.7416 39.1186 64 39.1186C50.2584 39.1186 39.1186 50.2584 39.1186 64C39.1186 77.7416 50.2584 88.8814 64 88.8814Z" stroke="white" stroke-width="2"/>
<path d="M63.9998 82.5198C74.228 82.5198 82.5196 74.2282 82.5196 64C82.5196 53.7718 74.228 45.4802 63.9998 45.4802C53.7716 45.4802 45.48 53.7718 45.48 64C45.48 74.2282 53.7716 82.5198 63.9998 82.5198Z" stroke="white" stroke-width="2"/>
<path d="M85.5574 76.4627L64.4768 112.975" stroke="white" stroke-width="2"/>
<path d="M42.4161 76.4604L21.3354 39.9476" stroke="white" stroke-width="2"/>
<path d="M64.0005 39.1186L106.162 39.1186" stroke="white" stroke-width="2"/>
</g>
<defs>
<clipPath id="clip0_3_43">
<rect width="128" height="128" rx="28" fill="white"/>
</clipPath>
</defs>
</svg>
