<svg width="256" height="256" fill="none" xmlns="http://www.w3.org/2000/svg"><style>.conditional{display:none}@media (min-width:1px) and (max-width:23px){#g-1-23{display:block}}@media (min-width:24px) and (max-width:63px){#g-24-63{display:block}}@media (min-width:64px) and (max-width:127px){#g-64-127{display:block}}@media (min-width:128px){#g-128-plus{display:block}}</style><mask id="circle" style="mask-type:alpha" maskUnits="userSpaceOnUse" x="0" y="0" width="256" height="256"><circle cx="128" cy="128" r="128" fill="#C4C4C4"/></mask><g mask="url(#circle)"><circle cx="128" cy="128" r="128" fill="#1A73E8"/><g class="conditional" id="g-1-23" stroke="#fff" stroke-width="16"><path d="M128.001 223.449c52.715 0 95.449-42.734 95.449-95.449 0-52.716-42.734-95.45-95.449-95.45-52.716 0-95.45 42.734-95.45 95.45 0 52.715 42.734 95.449 95.45 95.449Z"/><path d="M128 168.179c22.141 0 40.09-17.948 40.09-40.089S150.141 88 128 88c-22.141 0-40.09 17.949-40.09 40.09 0 22.141 17.949 40.089 40.09 40.089ZM162.924 147.696l-43.484 75.317M93.238 148.024 49.754 72.708M128.414 88h86.968"/></g><g class="conditional" id="g-24-63" stroke="#fff"><path d="M128 229.05c55.808 0 101.05-45.242 101.05-101.05S183.808 26.95 128 26.95 26.95 72.192 26.95 128 72.192 229.05 128 229.05Z" stroke-width="13.333"/><path d="M127.876 170.988c24.039 0 43.526-19.487 43.526-43.525s-19.487-43.525-43.526-43.525c-24.038 0-43.525 19.487-43.525 43.525s19.487 43.525 43.525 43.525ZM165.793 148.848l-47.21 81.771M90.135 149.204l-47.21-81.771M128.326 83.938h94.421" stroke-width="8"/></g><g class="conditional" id="g-64-127" stroke="#fff"><path d="m-12.578-12.578 281.162 281.162M268.596-12.596-12.59 268.59M186.182-19.394v294.788M69.818-19.394v294.788M275.397 186.182H-19.391M275.394 69.818H-19.394M128 210.214c45.406 0 82.214-36.808 82.214-82.214S173.406 45.786 128 45.786 45.786 82.594 45.786 128 82.594 210.214 128 210.214ZM-19.394 128h294.788M128-19.394v294.788" stroke-opacity=".3"/><path fill-rule="evenodd" clip-rule="evenodd" d="M128 242c62.96 0 114-51.04 114-114S190.96 14 128 14 14 65.04 14 128s51.04 114 114 114Z" stroke-width="4"/><path d="M128 185.887c31.97 0 57.887-25.917 57.887-57.887S159.97 70.113 128 70.113 70.113 96.03 70.113 128 96.03 185.887 128 185.887Z" stroke-width="4"/><path d="M128 171.087c23.796 0 43.087-19.291 43.087-43.087 0-23.796-19.291-43.087-43.087-43.087-23.797 0-43.087 19.291-43.087 43.087 0 23.796 19.29 43.087 43.087 43.087ZM178.154 156.995l-49.045 84.948M77.784 156.99 28.74 72.041M128.001 70.113h98.09" stroke-width="4"/></g><g class="conditional" id="g-128-plus" stroke="#fff"><path d="m-12.578-12.578 281.162 281.162M268.596-12.596-12.589 268.59M186.182-19.394v294.788M69.818-19.394v294.788M275.397 186.182H-19.391M275.394 69.818H-19.394M128 210.214c45.406 0 82.214-36.808 82.214-82.214S173.406 45.786 128 45.786 45.786 82.594 45.786 128 82.594 210.214 128 210.214ZM-19.394 128h294.788M128-19.394v294.788" stroke-opacity=".3" stroke-width=".5"/><path fill-rule="evenodd" clip-rule="evenodd" d="M128 242c62.96 0 114-51.04 114-114S190.96 14 128 14 14 65.04 14 128s51.04 114 114 114Z" stroke-width="4"/><path d="M128 186c32.033 0 58-25.967 58-58 0-32.032-25.967-58-58-58-32.032 0-58 25.968-58 58 0 32.033 25.968 58 58 58Z" stroke-width="4"/><path d="M128 173.396c25.071 0 45.396-20.324 45.396-45.396S153.071 82.604 128 82.604c-25.072 0-45.397 20.324-45.397 45.396s20.325 45.396 45.397 45.396ZM178.229 157.048l-49.045 84.948M77.792 157.049 28.747 72.101M128.001 70h98.09" stroke-width="4"/></g></g></svg>