<svg width="16" height="16" viewBox="0 0 16 16" fill="none" xmlns="http://www.w3.org/2000/svg">
<rect width="16" height="16" rx="3.33333" fill="#1A73E8"/>
<path d="M8.00001 13.9998C11.3136 13.9998 13.9998 11.3136 13.9998 8C13.9998 4.68638 11.3136 2.00017 8.00001 2.00017C4.6864 2.00017 2.00018 4.68638 2.00018 8C2.00018 11.3136 4.6864 13.9998 8.00001 13.9998Z" stroke="white"/>
<path d="M8.00002 10.52C9.39176 10.52 10.52 9.39175 10.52 8C10.52 6.60826 9.39176 5.48003 8.00002 5.48003C6.60827 5.48003 5.48004 6.60826 5.48004 8C5.48004 9.39175 6.60827 10.52 8.00002 10.52Z" stroke="white"/>
<path d="M10.1953 9.23813L7.46192 13.9724" stroke="white"/>
<path d="M5.81488 9.25871L3.08155 4.52444" stroke="white"/>
<path d="M8.02606 5.48003L13.4927 5.48003" stroke="white"/>
</svg>
