<svg width="48" height="48" viewBox="0 0 48 48" fill="none" xmlns="http://www.w3.org/2000/svg">
<rect width="48" height="48" rx="10" fill="#1A73E8"/>
<path d="M24 41.9995C33.9408 41.9995 41.9995 33.9408 41.9995 24C41.9995 14.0591 33.9408 6.0005 24 6.0005C14.0592 6.0005 6.00052 14.0591 6.00052 24C6.00052 33.9408 14.0592 41.9995 24 41.9995Z" stroke="white" stroke-width="2.5"/>
<path d="M24 31.5599C28.1752 31.5599 31.5599 28.1752 31.5599 24C31.5599 19.8248 28.1752 16.4401 24 16.4401C19.8248 16.4401 16.4401 19.8248 16.4401 24C16.4401 28.1752 19.8248 31.5599 24 31.5599Z" stroke="white" stroke-width="1.5"/>
<path d="M30.5858 27.7144L22.3858 41.9172" stroke="white" stroke-width="1.5"/>
<path d="M17.4446 27.7761L9.24464 13.5733" stroke="white" stroke-width="1.5"/>
<path d="M24.0781 16.4401L40.4781 16.4401" stroke="white" stroke-width="1.5"/>
</svg>
